<svg width="86" height="145" viewBox="0 0 86 145" fill="none" xmlns="http://www.w3.org/2000/svg">
<line x1="43" y1="128" x2="43" y2="144" stroke="black" stroke-width="2"/>
<line x1="43" y1="70" x2="43" y2="86" stroke="black" stroke-width="2"/>
<line x1="30.5773" y1="21.733" x2="42.5773" y2="2.733" stroke="black"/>
<line x1="43.4227" y1="2.73297" x2="55.4242" y2="21.7321" stroke="black"/>
<line x1="30.3841" y1="21.6799" x2="35.3841" y2="27.6799" stroke="black"/>
<line x1="50.6159" y1="27.6795" x2="55.6164" y2="21.6799" stroke="black"/>
<line x1="35.5" y1="28" x2="35.5" y2="58" stroke="black"/>
<line x1="50.5" y1="28" x2="50.5" y2="58" stroke="black"/>
<line y1="57.5" x2="35" y2="57.5" stroke="black"/>
<line x1="51" y1="57.5" x2="86" y2="57.5" stroke="black"/>
<line x1="0.353553" y1="57.6464" x2="13.3536" y2="70.6464" stroke="black"/>
<line x1="72.6464" y1="70.6464" x2="85.6464" y2="57.6464" stroke="black"/>
<line x1="13" y1="70.5" x2="73" y2="70.5" stroke="black"/>
<line x1="26.5" y1="71" x2="26.5" y2="128" stroke="black"/>
<line x1="59.5" y1="71" x2="59.5" y2="128" stroke="black"/>
<line x1="26.3536" y1="127.646" x2="43.3536" y2="144.646" stroke="black"/>
<line x1="42.6464" y1="144.646" x2="59.6464" y2="127.646" stroke="black"/>
<line x1="42.3293" y1="85.3763" x2="34.3293" y2="92.3763" stroke="black"/>
<line x1="51.6702" y1="92.3768" x2="43.6707" y2="85.3763" stroke="black"/>
<line x1="42.6702" y1="128.377" x2="34.6707" y2="121.376" stroke="black"/>
<line x1="51.3293" y1="121.376" x2="43.3293" y2="128.377" stroke="black"/>
</svg>
